<svg xmlns="http://www.w3.org/2000/svg" data-name="Camada 1" viewBox="0 0 100 125" x="0px" y="0px"><title>Home</title><path d="M88.19037,42.25965a2.6783,2.6783,0,0,0-2.67481,2.67529v40.147a5.70357,5.70357,0,0,1-5.69726,5.69727h-12.624a2.67505,2.67505,0,0,0,0,5.3501h12.624A11.06028,11.06028,0,0,0,90.86615,85.08191v-40.147A2.67851,2.67851,0,0,0,88.19037,42.25965Z"/><path d="M98.98724,36.49744,54.68841,5.38855a8.39987,8.39987,0,0,0-9.65039.0127L1.00677,36.496a2.67521,2.67521,0,1,0,3.08692,4.37011l5.04394-3.5625V85.08191A11.06028,11.06028,0,0,0,20.18548,96.12928H38.30169V61.83973a4.66548,4.66548,0,0,1,4.66016-4.66016H63.86712a2.67505,2.67505,0,0,0,0-5.3501H42.96185A10.02136,10.02136,0,0,0,32.95208,61.83973V90.77918H20.18548a5.70357,5.70357,0,0,1-5.69726-5.69727l.002-51.5581L47.00482,10.5614a4.9855,4.9855,0,0,1,5.72851-.00732L95.912,40.87537a2.67513,2.67513,0,0,0,3.72753-.65186A2.67952,2.67952,0,0,0,98.98724,36.49744Z"/><text x="0" y="115" fill="#000000" font-size="5px" font-weight="bold" font-family="'Helvetica Neue', Helvetica, Arial-Unicode, Arial, Sans-serif">Created by Luiz Carvalho</text><text x="0" y="120" fill="#000000" font-size="5px" font-weight="bold" font-family="'Helvetica Neue', Helvetica, Arial-Unicode, Arial, Sans-serif">from the Noun Project</text></svg>