<svg xmlns:dc="http://purl.org/dc/elements/1.1/" xmlns:cc="http://creativecommons.org/ns#" xmlns:rdf="http://www.w3.org/1999/02/22-rdf-syntax-ns#" xmlns:svg="http://www.w3.org/2000/svg" xmlns="http://www.w3.org/2000/svg" xmlns:sodipodi="http://sodipodi.sourceforge.net/DTD/sodipodi-0.dtd" xmlns:inkscape="http://www.inkscape.org/namespaces/inkscape" viewBox="0 0 8.4666667 10.583333625" version="1.1" x="0px" y="0px"><svg:g><svg:path style="color:#000000;font-style:normal;font-variant:normal;font-weight:normal;font-stretch:normal;font-size:medium;line-height:normal;font-family:sans-serif;font-variant-ligatures:normal;font-variant-position:normal;font-variant-caps:normal;font-variant-numeric:normal;font-variant-alternates:normal;font-feature-settings:normal;text-indent:0;text-align:start;text-decoration:none;text-decoration-line:none;text-decoration-style:solid;text-decoration-color:#000000;letter-spacing:normal;word-spacing:normal;text-transform:none;writing-mode:lr-tb;direction:ltr;text-orientation:mixed;dominant-baseline:auto;baseline-shift:baseline;text-anchor:start;white-space:normal;shape-padding:0;clip-rule:nonzero;display:inline;overflow:visible;visibility:visible;opacity:1;isolation:auto;mix-blend-mode:normal;color-interpolation:sRGB;color-interpolation-filters:linearRGB;solid-color:#000000;solid-opacity:1;vector-effect:none;fill:#000000;fill-opacity:1;fill-rule:nonzero;stroke:none;stroke-width:0.5291667;stroke-linecap:round;stroke-linejoin:round;stroke-miterlimit:4;stroke-dasharray:none;stroke-dashoffset:0;stroke-opacity:1;paint-order:stroke fill markers;color-rendering:auto;image-rendering:auto;shape-rendering:auto;text-rendering:auto;enable-background:accumulate" d="M 0.79271558,0.42865598 A 0.26460979,0.26460979 0 0 0 0.53691906,0.63174436 L 0.01240378,2.8615824 A 0.26460984,0.26460984 0 0 0 1.0907854e-7,2.9421976 V 3.46568 C 1.0907854e-7,3.8112893 0.17081775,4.1170159 0.42943208,4.3105895 V 7.7723936 A 0.26460979,0.26460979 0 0 0 0.69349683,8.0380107 H 7.7736859 A 0.26460979,0.26460979 0 0 0 8.0372347,7.7723936 V 4.3111063 C 8.2961374,4.1175564 8.4666667,3.8115145 8.4666667,3.46568 V 2.9421976 a 0.26460984,0.26460984 0 0 0 -0.01292,-0.082165 L 7.9297477,0.63174436 A 0.26460979,0.26460979 0 0 0 7.6739512,0.42865598 Z M 1.0020063,0.95782264 H 7.46311 L 7.8692878,2.6765808 H 1.8515675 0.59789758 Z M 0.52916677,3.2057475 H 1.588016 V 3.46568 c 0,0.032075 -0.00413,0.063201 -0.0093,0.093534 a 0.26460979,0.26460979 0 0 0 -5.186e-4,0.00207 c -0.011316,0.061887 -0.032837,0.1203459 -0.063045,0.1725993 -0.015102,0.026126 -0.032504,0.050392 -0.051676,0.07338 -0.017613,0.02112 -0.037182,0.040834 -0.057878,0.058911 -0.00454,0.00392 -0.00927,0.00761 -0.013951,0.011369 -0.018505,0.015064 -0.037862,0.028895 -0.058396,0.041341 -0.00786,0.00469 -0.01615,0.00864 -0.024286,0.012919 -0.017928,0.0096 -0.036129,0.018843 -0.055295,0.026355 -0.017097,0.00657 -0.035256,0.011199 -0.053226,0.01602 -0.013436,0.00368 -0.026424,0.00822 -0.040307,0.010852 -0.032822,0.0061 -0.066381,0.00982 -0.1012878,0.00982 -0.0857303,0 -0.16510003,-0.022401 -0.24236101,-0.062528 a 0.26460979,0.26460979 0 0 0 -0.032557,-0.013436 C 0.63046514,3.8274069 0.52916677,3.6616399 0.52916677,3.46568 Z m 1.58801593,0 H 3.1760346 V 3.46568 c 0,0.026759 -0.00413,0.052462 -0.00775,0.078031 a 0.26460979,0.26460979 0 0 0 -0.00414,0.01757 c -0.022635,0.1237739 -0.085992,0.2326036 -0.1767311,0.3100585 -0.00114,9.517e-4 -0.00247,0.00164 -0.00362,0.00258 -0.020211,0.016953 -0.041873,0.031734 -0.064595,0.045475 -0.00673,0.00398 -0.01374,0.00769 -0.020669,0.011369 -0.018476,0.010045 -0.037536,0.019594 -0.057362,0.027389 -0.016216,0.00622 -0.033121,0.010846 -0.050125,0.015503 -0.014367,0.00403 -0.028512,0.00854 -0.043408,0.011369 -0.032679,0.00604 -0.066545,0.00982 -0.1012878,0.00982 -0.034904,0 -0.068464,-0.00372 -0.1012851,-0.00982 -0.013883,-0.00263 -0.026874,-0.00718 -0.040307,-0.010852 -0.017973,-0.00482 -0.036129,-0.00945 -0.053229,-0.01602 -0.019166,-0.00751 -0.037364,-0.016751 -0.055293,-0.026355 -0.00814,-0.00428 -0.016423,-0.00823 -0.024289,-0.012919 -0.020532,-0.012446 -0.039889,-0.026277 -0.058393,-0.041341 -0.00468,-0.00376 -0.00941,-0.00745 -0.013952,-0.011369 C 2.2113214,3.7890656 2.1491735,3.6825399 2.1270014,3.5612814 a 0.26460979,0.26460979 0 0 0 -0.00103,-0.00465 c -0.00489,-0.029552 -0.00879,-0.059755 -0.00879,-0.09095 z m 1.5880185,0 H 4.7614655 V 3.46568 c 0,0.032249 -0.00356,0.063565 -0.00878,0.094051 a 0.26460979,0.26460979 0 0 0 -5.16e-4,0.00155 c -0.01665,0.091044 -0.055867,0.1736354 -0.1116224,0.2418455 -0.00202,0.00245 -0.00414,0.00482 -0.0062,0.00723 -0.016367,0.019298 -0.034248,0.037544 -0.053226,0.05426 -0.00556,0.00484 -0.011282,0.00935 -0.017052,0.013953 -0.017891,0.014458 -0.036555,0.027768 -0.056327,0.039791 -0.00861,0.00515 -0.017936,0.00929 -0.026871,0.013953 -0.017407,0.00924 -0.035179,0.018564 -0.053745,0.025838 -0.016216,0.00622 -0.03312,0.010846 -0.050125,0.015503 -0.014404,0.00403 -0.028485,0.00854 -0.043408,0.011369 -0.032679,0.00604 -0.066545,0.00982 -0.1012878,0.00982 -0.034904,0 -0.068511,-0.00372 -0.1012852,-0.00982 -0.0141,-0.00268 -0.027199,-0.00709 -0.040825,-0.010852 -0.01769,-0.00478 -0.035361,-0.00954 -0.052192,-0.01602 -0.019103,-0.00751 -0.037441,-0.016751 -0.055295,-0.026355 -0.00797,-0.00421 -0.01606,-0.00832 -0.02377,-0.012919 -0.021082,-0.012815 -0.041024,-0.02678 -0.059944,-0.042375 -0.004,-0.00325 -0.00799,-0.00646 -0.011885,-0.00982 C 3.7990066,3.7895445 3.737237,3.6827912 3.7150199,3.5612814 a 0.26460979,0.26460979 0 0 0 -0.00103,-0.00465 c -0.00486,-0.029552 -0.00878,-0.059755 -0.00878,-0.09095 z m 1.5859496,0 H 6.3494841 V 3.46568 c 0,0.031019 -0.00394,0.061037 -0.00879,0.090433 a 0.26460979,0.26460979 0 0 0 -0.00103,0.00517 c -0.022175,0.1212585 -0.08432,0.2277842 -0.1726009,0.304891 -0.00454,0.00392 -0.00927,0.00761 -0.013952,0.011369 -0.018505,0.015064 -0.037862,0.028895 -0.058394,0.041341 -0.00787,0.00469 -0.016153,0.00864 -0.024289,0.012919 -0.017928,0.0096 -0.036126,0.018843 -0.055293,0.026355 -0.0171,0.00657 -0.035256,0.011199 -0.053229,0.01602 -0.013433,0.00368 -0.026424,0.00822 -0.040307,0.010852 C 5.8887772,3.99113 5.8552202,3.99485 5.820314,3.99485 5.785408,3.99485 5.751848,3.99113 5.7190262,3.98503 5.7051702,3.9824 5.6921212,3.97785 5.6787192,3.974178 5.6607492,3.969358 5.6425902,3.964728 5.6254932,3.958158 5.6049882,3.950098 5.5856392,3.940205 5.5665812,3.929736 5.5603912,3.926416 5.5540112,3.923476 5.5479782,3.919916 5.5256792,3.906451 5.5043012,3.891518 5.4844172,3.874958 5.4816672,3.872708 5.4788572,3.870538 5.4761472,3.868238 5.3871839,3.7909865 5.3248746,3.68354 5.3025199,3.5612814 a 0.26460979,0.26460979 0 0 0 -0.00414,-0.01757 c -0.00362,-0.025566 -0.00723,-0.051277 -0.00723,-0.078031 z m 1.5875,0 H 7.9375 V 3.46568 c 0,0.1944399 -0.1002109,0.3592049 -0.2516637,0.4511352 a 0.26460979,0.26460979 0 0 0 -0.035658,0.015503 c -0.077258,0.040127 -0.1561148,0.062528 -0.2418451,0.062528 -0.034917,0 -0.068971,-0.00372 -0.1018037,-0.00982 -0.01334,-0.00253 -0.025829,-0.00684 -0.038756,-0.010335 -0.01882,-0.00499 -0.037428,-0.010152 -0.055293,-0.017053 -0.017925,-0.00705 -0.034835,-0.015917 -0.051678,-0.024805 -0.00929,-0.00482 -0.018968,-0.00912 -0.027906,-0.014469 -0.019772,-0.012023 -0.038436,-0.025333 -0.056327,-0.039791 -0.00577,-0.0046 -0.011491,-0.00911 -0.017052,-0.013953 -0.018976,-0.016716 -0.036857,-0.034963 -0.053226,-0.05426 -0.00206,-0.00242 -0.00418,-0.00478 -0.0062,-0.00723 C 6.9443362,3.7349168 6.905117,3.6523253 6.8884694,3.5612814 a 0.26460979,0.26460979 0 0 0 -5.185e-4,-0.00207 c -0.00517,-0.030333 -0.0093,-0.061459 -0.0093,-0.093534 z M 1.8525994,4.1571106 C 2.0471237,4.3800443 2.3294076,4.52453 2.6463493,4.52453 c 0.3167275,0 0.5992363,-0.1442341 0.79375,-0.3669027 0.1939872,0.2226686 0.4754748,0.3669027 0.7921996,0.3669027 0.3169867,0 0.5997442,-0.1444344 0.7942685,-0.3674194 0.1945217,0.2229337 0.4768057,0.3674194 0.79375,0.3674194 0.3169444,0 0.5992257,-0.1444857 0.79375,-0.3674194 0.1945243,0.222985 0.4772792,0.3674194 0.7942659,0.3674194 0.034153,0 0.066381,-0.00712 0.099735,-0.010335 V 7.508844 H 3.7362051 V 5.1260436 A 0.26460979,0.26460979 0 0 0 3.4705899,4.8604268 H 1.650545 A 0.26460979,0.26460979 0 0 0 1.3864776,5.1260436 V 7.508844 H 0.95911468 V 4.5141946 c 0.0332767,0.0032 0.0656643,0.010335 0.0997347,0.010335 0.3169443,0 0.5992283,-0.1444857 0.79375,-0.367419 z M 4.3165316,4.8604268 A 0.26460979,0.26460979 0 0 0 4.0529828,5.1260436 V 6.6494649 A 0.26460979,0.26460979 0 0 0 4.3165316,6.9150817 H 6.8166377 A 0.26460979,0.26460979 0 0 0 7.0801892,6.6494649 V 5.1260436 A 0.26460979,0.26460979 0 0 0 6.8166377,4.8604268 Z M 1.9161629,5.3895934 H 3.2070385 V 7.508844 H 1.9161629 Z m 2.6659866,0 h 1.968873 V 6.385915 h -1.968873 z"/></svg:g><text x="0" y="23.4666669" fill="#000000" font-size="5px" font-weight="bold" font-family="'Helvetica Neue', Helvetica, Arial-Unicode, Arial, Sans-serif">Created by Larea</text><text x="0" y="28.4666669" fill="#000000" font-size="5px" font-weight="bold" font-family="'Helvetica Neue', Helvetica, Arial-Unicode, Arial, Sans-serif">from the Noun Project</text></svg>